<svg id="svg5" xmlns="http://www.w3.org/2000/svg" viewBox="0 0 531.93 381.79"><defs><style>.cls-1{fill:#fc0;}.cls-2{fill:#c6e0f7;}</style></defs><title>cloud-sun</title><g id="g14677"><circle id="circle14650" class="cls-1" cx="366.93" cy="165" r="84"/><path id="path14652" class="cls-1" d="M608.48,273.6c-6.09,0-11,5.89-11,13.2v28.6c0,7.32,4.91,13.2,11,13.2s11-5.88,11-13.2V286.8C619.48,279.49,614.58,273.6,608.48,273.6Z" transform="translate(-241.55 -273.6)"/><path id="path14654" class="cls-1" d="M725.15,321.93c-4.3-4.31-11.94-3.61-17.11,1.56l-20.22,20.22c-5.17,5.17-5.87,12.8-1.56,17.11s11.94,3.62,17.12-1.55L723.6,339C728.77,333.87,729.46,326.24,725.15,321.93Z" transform="translate(-241.55 -273.6)"/><path id="path14656" class="cls-1" d="M773.48,438.6c0-6.09-5.89-11-13.2-11h-28.6c-7.31,0-13.2,4.91-13.2,11s5.89,11,13.2,11h28.6c7.31,0,13.2-4.9,13.2-11Z" transform="translate(-241.55 -273.6)"/><path id="path14658" class="cls-1" d="M725.15,555.28c4.31-4.31,3.62-11.94-1.55-17.12l-20.22-20.22c-5.18-5.17-12.81-5.86-17.12-1.55s-3.61,11.94,1.56,17.11L708,553.72c5.17,5.17,12.81,5.87,17.11,1.56Z" transform="translate(-241.55 -273.6)"/><path id="path14660" class="cls-1" d="M608.48,603.6c6.1,0,11-5.88,11-13.2V561.8c0-7.31-4.9-13.2-11-13.2s-11,5.89-11,13.2v28.6C597.48,597.72,602.39,603.6,608.48,603.6Z" transform="translate(-241.55 -273.6)"/><path id="path14662" class="cls-1" d="M491.81,555.28c4.31,4.31,11.94,3.61,17.11-1.56l20.22-20.22c5.18-5.17,5.87-12.8,1.56-17.11s-11.94-3.62-17.11,1.55l-20.23,20.22C488.19,543.34,487.5,551,491.81,555.28Z" transform="translate(-241.55 -273.6)"/><path id="path14664" class="cls-1" d="M443.48,438.6c0,6.1,5.89,11,13.2,11h28.6c7.31,0,13.2-4.9,13.2-11s-5.89-11-13.2-11h-28.6C449.37,427.6,443.48,432.51,443.48,438.6Z" transform="translate(-241.55 -273.6)"/><path id="path14666" class="cls-1" d="M491.81,321.93c-4.31,4.31-3.62,11.94,1.56,17.11l20.22,20.23c5.17,5.17,12.8,5.86,17.11,1.55s3.62-11.94-1.56-17.11l-20.22-20.22c-5.17-5.17-12.8-5.87-17.11-1.56Z" transform="translate(-241.55 -273.6)"/></g><path id="rect2741" class="cls-2" d="M399.71,406.18a95.15,95.15,0,0,0-95,106.26c-36.08,6.48-63.15,35.62-63.15,70.8,0,40,34.94,72.15,78.34,72.15H599.4c40,0,72.15-29.91,72.15-67.07,0-36.92-31.78-66.67-71.4-67a82.73,82.73,0,0,0-116.33-65,95.7,95.7,0,0,0-84.11-50.09Z" transform="translate(-241.55 -273.6)"/></svg>