<svg id="svg5" xmlns="http://www.w3.org/2000/svg" viewBox="0 0 534 393.02"><defs><style>.cls-1{fill:#86a3bf;}.cls-2{fill:#c6e0f7;}.cls-3{fill:#3981bf;}</style></defs><title>clouds-rain</title><path id="path13776" class="cls-1" d="M503.71,370.18a95.15,95.15,0,0,0-95,106.26c-36.08,6.48-63.15,35.62-63.15,70.8,0,40,34.94,72.15,78.34,72.15H703.4c40,0,72.15-29.91,72.15-67.07,0-36.92-31.78-66.67-71.4-67a82.73,82.73,0,0,0-116.33-65,95.7,95.7,0,0,0-84.11-50.09Z" transform="translate(-241.55 -370.18)"/><path id="path13694" class="cls-2" d="M399.71,406.18a95.15,95.15,0,0,0-95,106.26c-36.08,6.48-63.15,35.62-63.15,70.8,0,40,34.94,72.15,78.34,72.15H599.4c40,0,72.15-29.91,72.15-67.07,0-36.92-31.78-66.67-71.4-67a82.73,82.73,0,0,0-116.33-65,95.7,95.7,0,0,0-84.11-50.09Z" transform="translate(-241.55 -370.18)"/><path id="circle8231" class="cls-3" d="M353.54,610c-7.27,8.19-26.94,24.62-32.87,47a19.59,19.59,0,0,0,13.85,24h0a19.6,19.6,0,0,0,24-13.85l.12-.49c6.09-23.48-2.92-46-5.1-56.63Z" transform="translate(-241.55 -370.18)"/><path id="path8238" class="cls-3" d="M443.1,610c-7.26,8.19-26.93,24.62-32.87,47a19.6,19.6,0,0,0,13.86,24h0a19.59,19.59,0,0,0,24-13.85c.05-.17.09-.33.13-.49,6.08-23.48-2.92-46-5.11-56.63Z" transform="translate(-241.55 -370.18)"/><path id="path8240" class="cls-3" d="M532.82,612.39c-7.27,8.2-26.94,24.62-32.87,47a19.59,19.59,0,0,0,13.85,24h0a19.6,19.6,0,0,0,24-13.85l.12-.49c6.09-23.48-2.92-46-5.1-56.63Z" transform="translate(-241.55 -370.18)"/><path id="path8852" class="cls-3" d="M398.39,691.57c-7.26,8.19-26.93,24.61-32.87,47a19.6,19.6,0,0,0,13.86,24h0a19.59,19.59,0,0,0,24-13.86c.05-.16.09-.32.13-.49,6.08-23.48-2.92-46-5.11-56.62Z" transform="translate(-241.55 -370.18)"/><path id="path8854" class="cls-3" d="M488,691.57c-7.26,8.19-26.93,24.61-32.87,47a19.6,19.6,0,0,0,13.86,24h0a19.59,19.59,0,0,0,24-13.86h0c.05-.16.09-.32.13-.49,6.08-23.48-2.93-46-5.11-56.62Z" transform="translate(-241.55 -370.18)"/></svg>