<svg id="svg5" xmlns="http://www.w3.org/2000/svg" viewBox="0 0 500 500"><defs><style>.cls-1{fill:#fc0;}</style></defs><title>sun</title><g id="g14677"><circle id="circle14650" class="cls-1" cx="250" cy="250" r="127.27"/><path id="path14652" class="cls-1" d="M500,250c-9.23,0-16.67,8.92-16.67,20v43.33c0,11.08,7.44,20,16.67,20s16.67-8.92,16.67-20V270C516.67,258.92,509.23,250,500,250Z" transform="translate(-250 -250)"/><path id="path14654" class="cls-1" d="M676.78,323.22c-6.53-6.53-18.1-5.47-25.93,2.36l-30.64,30.64c-7.84,7.84-8.89,19.4-2.36,25.93s18.09,5.48,25.93-2.36l30.64-30.64C682.25,341.32,683.31,329.75,676.78,323.22Z" transform="translate(-250 -250)"/><path id="path14656" class="cls-1" d="M750,500c0-9.23-8.92-16.67-20-16.67H686.67c-11.08,0-20,7.44-20,16.67s8.92,16.67,20,16.67H730c11.08,0,20-7.44,20-16.67Z" transform="translate(-250 -250)"/><path id="path14658" class="cls-1" d="M676.78,676.78c6.53-6.53,5.47-18.1-2.36-25.93l-30.64-30.64c-7.84-7.84-19.4-8.89-25.93-2.36s-5.48,18.09,2.36,25.93l30.64,30.64c7.83,7.83,19.4,8.89,25.93,2.36Z" transform="translate(-250 -250)"/><path id="path14660" class="cls-1" d="M500,750c9.23,0,16.67-8.92,16.67-20V686.67c0-11.08-7.44-20-16.67-20s-16.67,8.92-16.67,20V730c0,11.08,7.44,20,16.67,20Z" transform="translate(-250 -250)"/><path id="path14662" class="cls-1" d="M323.22,676.78c6.53,6.53,18.1,5.47,25.93-2.36l30.64-30.64c7.84-7.84,8.89-19.4,2.36-25.93s-18.09-5.48-25.93,2.36l-30.64,30.64C317.75,658.68,316.69,670.25,323.22,676.78Z" transform="translate(-250 -250)"/><path id="path14664" class="cls-1" d="M250,500c0,9.23,8.92,16.67,20,16.67h43.33c11.08,0,20-7.44,20-16.67s-8.92-16.67-20-16.67H270C258.92,483.33,250,490.77,250,500Z" transform="translate(-250 -250)"/><path id="path14666" class="cls-1" d="M323.22,323.22c-6.53,6.53-5.47,18.1,2.36,25.93l30.64,30.64c7.84,7.84,19.4,8.89,25.93,2.36s5.48-18.09-2.36-25.93l-30.64-30.64c-7.83-7.83-19.4-8.89-25.93-2.36Z" transform="translate(-250 -250)"/></g></svg>